<?xml version="1.0" encoding="UTF-8" standalone="no"?>
<!-- Generator: Adobe Illustrator 18.0.0, SVG Export Plug-In . SVG Version: 6.00 Build 0)  -->

<svg
   xmlns:dc="http://purl.org/dc/elements/1.1/"
   xmlns:cc="http://creativecommons.org/ns#"
   xmlns:rdf="http://www.w3.org/1999/02/22-rdf-syntax-ns#"
   xmlns:svg="http://www.w3.org/2000/svg"
   xmlns="http://www.w3.org/2000/svg"
   xmlns:sodipodi="http://sodipodi.sourceforge.net/DTD/sodipodi-0.dtd"
   xmlns:inkscape="http://www.inkscape.org/namespaces/inkscape"
   version="1.1"
   id="Capa_1"
   x="0px"
   y="0px"
   viewBox="0 0 142.448 142.448"
   style="enable-background:new 0 0 142.448 142.448;"
   xml:space="preserve"
   sodipodi:docname="play-button-svgrepo-com.svg"
   inkscape:version="0.92.4 5da689c313, 2019-01-14"><metadata
   id="metadata43"><rdf:RDF><cc:Work
       rdf:about=""><dc:format>image/svg+xml</dc:format><dc:type
         rdf:resource="http://purl.org/dc/dcmitype/StillImage" /><dc:title></dc:title></cc:Work></rdf:RDF></metadata><defs
   id="defs41" /><sodipodi:namedview
   pagecolor="#ffffff"
   bordercolor="#666666"
   borderopacity="1"
   objecttolerance="10"
   gridtolerance="10"
   guidetolerance="10"
   inkscape:pageopacity="0"
   inkscape:pageshadow="2"
   inkscape:window-width="640"
   inkscape:window-height="480"
   id="namedview39"
   showgrid="false"
   inkscape:zoom="1.6567449"
   inkscape:cx="71.223999"
   inkscape:cy="71.223999"
   inkscape:window-x="0"
   inkscape:window-y="2"
   inkscape:window-maximized="0"
   inkscape:current-layer="Capa_1" />
<g
   id="g6">
	<path
   style="fill:#1D1D1B;"
   d="M142.411,68.9C141.216,31.48,110.968,1.233,73.549,0.038c-20.361-0.646-39.41,7.104-53.488,21.639   C6.527,35.65-0.584,54.071,0.038,73.549c1.194,37.419,31.442,67.667,68.861,68.861c0.779,0.025,1.551,0.037,2.325,0.037   c19.454,0,37.624-7.698,51.163-21.676C135.921,106.799,143.033,88.377,142.411,68.9z M111.613,110.336   c-10.688,11.035-25.032,17.112-40.389,17.112c-0.614,0-1.228-0.01-1.847-0.029c-29.532-0.943-53.404-24.815-54.348-54.348   c-0.491-15.382,5.122-29.928,15.806-40.958c10.688-11.035,25.032-17.112,40.389-17.112c0.614,0,1.228,0.01,1.847,0.029   c29.532,0.943,53.404,24.815,54.348,54.348C127.91,84.76,122.296,99.306,111.613,110.336z"
   id="path2" />
	<path
   style="fill:#1D1D1B;"
   d="M94.585,67.086L63.001,44.44c-3.369-2.416-8.059-0.008-8.059,4.138v45.293   c0,4.146,4.69,6.554,8.059,4.138l31.583-22.647C97.418,73.331,97.418,69.118,94.585,67.086z"
   id="path4" />
</g>
<g
   id="g8">
</g>
<g
   id="g10">
</g>
<g
   id="g12">
</g>
<g
   id="g14">
</g>
<g
   id="g16">
</g>
<g
   id="g18">
</g>
<g
   id="g20">
</g>
<g
   id="g22">
</g>
<g
   id="g24">
</g>
<g
   id="g26">
</g>
<g
   id="g28">
</g>
<g
   id="g30">
</g>
<g
   id="g32">
</g>
<g
   id="g34">
</g>
<g
   id="g36">
</g>
</svg>