<?xml version="1.0" encoding="UTF-8" standalone="no"?>
<!-- Generator: Adobe Illustrator 18.1.1, SVG Export Plug-In . SVG Version: 6.00 Build 0)  -->

<svg
   xmlns:dc="http://purl.org/dc/elements/1.1/"
   xmlns:cc="http://creativecommons.org/ns#"
   xmlns:rdf="http://www.w3.org/1999/02/22-rdf-syntax-ns#"
   xmlns:svg="http://www.w3.org/2000/svg"
   xmlns="http://www.w3.org/2000/svg"
   xmlns:sodipodi="http://sodipodi.sourceforge.net/DTD/sodipodi-0.dtd"
   xmlns:inkscape="http://www.inkscape.org/namespaces/inkscape"
   version="1.1"
   id="Capa_1"
   x="0px"
   y="0px"
   viewBox="0 0 17.802 17.802"
   style="enable-background:new 0 0 17.802 17.802;"
   xml:space="preserve"
   sodipodi:docname="previous-track-button-svgrepo-com.svg"
   inkscape:version="0.92.4 5da689c313, 2019-01-14"><metadata
   id="metadata45"><rdf:RDF><cc:Work
       rdf:about=""><dc:format>image/svg+xml</dc:format><dc:type
         rdf:resource="http://purl.org/dc/dcmitype/StillImage" /><dc:title></dc:title></cc:Work></rdf:RDF></metadata><defs
   id="defs43" /><sodipodi:namedview
   pagecolor="#ffffff"
   bordercolor="#666666"
   borderopacity="1"
   objecttolerance="10"
   gridtolerance="10"
   guidetolerance="10"
   inkscape:pageopacity="0"
   inkscape:pageshadow="2"
   inkscape:window-width="640"
   inkscape:window-height="480"
   id="namedview41"
   showgrid="false"
   inkscape:zoom="13.256937"
   inkscape:cx="8.901"
   inkscape:cy="8.901"
   inkscape:window-x="0"
   inkscape:window-y="2"
   inkscape:window-maximized="0"
   inkscape:current-layer="Capa_1" />
<g
   id="g8">
	<g
   id="c92_stop">
		<path
   d="M15.363,0.042c-0.139-0.07-0.303-0.051-0.424,0.043L4.163,8.587C4.069,8.664,4.01,8.78,4.01,8.9    c0,0.119,0.059,0.24,0.153,0.314l10.776,8.502c0.071,0.057,0.162,0.086,0.249,0.086l0.175-0.039    c0.139-0.064,0.225-0.207,0.225-0.361V0.403C15.588,0.249,15.502,0.107,15.363,0.042z"
   id="path2" />
		<path
   d="M5.188,0.033H2.53c-0.172,0-0.315,0.182-0.315,0.401V17.37c0,0.221,0.143,0.403,0.315,0.403h2.657    c0.174,0,0.315-0.183,0.315-0.403V0.434C5.503,0.215,5.361,0.033,5.188,0.033z"
   id="path4" />
	</g>
	<g
   id="Capa_1_264_">
	</g>
</g>
<g
   id="g10">
</g>
<g
   id="g12">
</g>
<g
   id="g14">
</g>
<g
   id="g16">
</g>
<g
   id="g18">
</g>
<g
   id="g20">
</g>
<g
   id="g22">
</g>
<g
   id="g24">
</g>
<g
   id="g26">
</g>
<g
   id="g28">
</g>
<g
   id="g30">
</g>
<g
   id="g32">
</g>
<g
   id="g34">
</g>
<g
   id="g36">
</g>
<g
   id="g38">
</g>
</svg>