<?xml version="1.0" encoding="UTF-8" standalone="no"?>
<!-- Generator: Adobe Illustrator 18.1.1, SVG Export Plug-In . SVG Version: 6.00 Build 0)  -->

<svg
   xmlns:dc="http://purl.org/dc/elements/1.1/"
   xmlns:cc="http://creativecommons.org/ns#"
   xmlns:rdf="http://www.w3.org/1999/02/22-rdf-syntax-ns#"
   xmlns:svg="http://www.w3.org/2000/svg"
   xmlns="http://www.w3.org/2000/svg"
   xmlns:sodipodi="http://sodipodi.sourceforge.net/DTD/sodipodi-0.dtd"
   xmlns:inkscape="http://www.inkscape.org/namespaces/inkscape"
   version="1.1"
   id="Capa_1"
   x="0px"
   y="0px"
   viewBox="0 0 28.978 28.978"
   style="enable-background:new 0 0 28.978 28.978;"
   xml:space="preserve"
   sodipodi:docname="up-arrow-button-svgrepo-com.svg"
   inkscape:version="0.92.4 5da689c313, 2019-01-14"><metadata
   id="metadata45"><rdf:RDF><cc:Work
       rdf:about=""><dc:format>image/svg+xml</dc:format><dc:type
         rdf:resource="http://purl.org/dc/dcmitype/StillImage" /><dc:title></dc:title></cc:Work></rdf:RDF></metadata><defs
   id="defs43" /><sodipodi:namedview
   pagecolor="#ffffff"
   bordercolor="#666666"
   borderopacity="1"
   objecttolerance="10"
   gridtolerance="10"
   guidetolerance="10"
   inkscape:pageopacity="0"
   inkscape:pageshadow="2"
   inkscape:window-width="640"
   inkscape:window-height="480"
   id="namedview41"
   showgrid="false"
   inkscape:zoom="8.1441091"
   inkscape:cx="14.489"
   inkscape:cy="14.489"
   inkscape:window-x="0"
   inkscape:window-y="2"
   inkscape:window-maximized="0"
   inkscape:current-layer="Capa_1" />
<g
   id="g8">
	<g
   id="g6">
		<path
   d="M14.488,0C6.487,0,0,6.488,0,14.49c0,8.003,6.486,14.487,14.488,14.487c8.003,0.002,14.49-6.483,14.49-14.487    C28.978,6.488,22.492,0,14.488,0z M14.489,26.558c-6.664,0-12.066-5.401-12.066-12.068c0-6.664,5.404-12.071,12.066-12.071    c6.667,0,12.069,5.408,12.069,12.071C26.558,21.156,21.157,26.558,14.489,26.558z"
   id="path2" />
		<path
   d="M14.824,8.002c-0.089-0.107-0.222-0.169-0.361-0.168S14.192,7.9,14.106,8.01l-3.742,4.761    c-0.109,0.138-0.129,0.327-0.053,0.485c0.077,0.158,0.237,0.26,0.414,0.26c0.775,0,1.566,0,1.566,0s0,6.358,0,7.681    c0,0-0.011,0.308,0.392,0.308c0.398,0,3.098,0,3.662,0c0.559,0,0.463-0.371,0.463-0.371c0-1.361,0-7.615,0-7.615s0.732,0,1.57,0    c0.179,0,0.341-0.102,0.417-0.263c0.075-0.161,0.052-0.351-0.062-0.488L14.824,8.002z"
   id="path4" />
	</g>
</g>
<g
   id="g10">
</g>
<g
   id="g12">
</g>
<g
   id="g14">
</g>
<g
   id="g16">
</g>
<g
   id="g18">
</g>
<g
   id="g20">
</g>
<g
   id="g22">
</g>
<g
   id="g24">
</g>
<g
   id="g26">
</g>
<g
   id="g28">
</g>
<g
   id="g30">
</g>
<g
   id="g32">
</g>
<g
   id="g34">
</g>
<g
   id="g36">
</g>
<g
   id="g38">
</g>
</svg>