<?xml version="1.0" encoding="UTF-8" standalone="no"?>
<!-- Generator: Adobe Illustrator 18.1.1, SVG Export Plug-In . SVG Version: 6.00 Build 0)  -->

<svg
   xmlns:dc="http://purl.org/dc/elements/1.1/"
   xmlns:cc="http://creativecommons.org/ns#"
   xmlns:rdf="http://www.w3.org/1999/02/22-rdf-syntax-ns#"
   xmlns:svg="http://www.w3.org/2000/svg"
   xmlns="http://www.w3.org/2000/svg"
   xmlns:sodipodi="http://sodipodi.sourceforge.net/DTD/sodipodi-0.dtd"
   xmlns:inkscape="http://www.inkscape.org/namespaces/inkscape"
   version="1.1"
   id="Capa_1"
   x="0px"
   y="0px"
   viewBox="0 0 271.953 271.953"
   style="enable-background:new 0 0 271.953 271.953;"
   xml:space="preserve"
   sodipodi:docname="video-pause-button-svgrepo-com.svg"
   inkscape:version="0.92.4 5da689c313, 2019-01-14"><metadata
   id="metadata47"><rdf:RDF><cc:Work
       rdf:about=""><dc:format>image/svg+xml</dc:format><dc:type
         rdf:resource="http://purl.org/dc/dcmitype/StillImage" /><dc:title></dc:title></cc:Work></rdf:RDF></metadata><defs
   id="defs45" /><sodipodi:namedview
   pagecolor="#ffffff"
   bordercolor="#666666"
   borderopacity="1"
   objecttolerance="10"
   gridtolerance="10"
   guidetolerance="10"
   inkscape:pageopacity="0"
   inkscape:pageshadow="2"
   inkscape:window-width="640"
   inkscape:window-height="480"
   id="namedview43"
   showgrid="false"
   inkscape:zoom="0.867797"
   inkscape:cx="135.9765"
   inkscape:cy="135.9765"
   inkscape:window-x="0"
   inkscape:window-y="2"
   inkscape:window-maximized="0"
   inkscape:current-layer="Capa_1" />
<g
   id="g10">
	<g
   id="g8">
		<path
   style="fill:#010002;"
   d="M135.977,271.953c75.097,0,135.977-60.879,135.977-135.977S211.074,0,135.977,0S0,60.879,0,135.977    S60.879,271.953,135.977,271.953z M135.977,21.756c62.979,0,114.22,51.241,114.22,114.22s-51.241,114.22-114.22,114.22    s-114.22-51.241-114.22-114.22S72.992,21.756,135.977,21.756z"
   id="path2" />
		<path
   style="fill:#010002;"
   d="M110.707,200.114c7.511,0,13.598-6.086,13.598-13.598V83.174c0-7.511-6.086-13.598-13.598-13.598    c-7.511,0-13.598,6.086-13.598,13.598v103.342C97.109,194.028,103.195,200.114,110.707,200.114z"
   id="path4" />
		<path
   style="fill:#010002;"
   d="M165.097,200.114c7.511,0,13.598-6.086,13.598-13.598V83.174c0-7.511-6.086-13.598-13.598-13.598    S151.5,75.663,151.5,83.174v103.342C151.5,194.028,157.586,200.114,165.097,200.114z"
   id="path6" />
	</g>
</g>
<g
   id="g12">
</g>
<g
   id="g14">
</g>
<g
   id="g16">
</g>
<g
   id="g18">
</g>
<g
   id="g20">
</g>
<g
   id="g22">
</g>
<g
   id="g24">
</g>
<g
   id="g26">
</g>
<g
   id="g28">
</g>
<g
   id="g30">
</g>
<g
   id="g32">
</g>
<g
   id="g34">
</g>
<g
   id="g36">
</g>
<g
   id="g38">
</g>
<g
   id="g40">
</g>
</svg>