<?xml version="1.0" encoding="UTF-8" standalone="no"?>
<!-- Created with Inkscape (http://www.inkscape.org/) -->

<svg
   xmlns:dc="http://purl.org/dc/elements/1.1/"
   xmlns:cc="http://creativecommons.org/ns#"
   xmlns:rdf="http://www.w3.org/1999/02/22-rdf-syntax-ns#"
   xmlns:svg="http://www.w3.org/2000/svg"
   xmlns="http://www.w3.org/2000/svg"
   xmlns:sodipodi="http://sodipodi.sourceforge.net/DTD/sodipodi-0.dtd"
   xmlns:inkscape="http://www.inkscape.org/namespaces/inkscape"
   width="71.954491mm"
   height="71.954231mm"
   viewBox="0 0 71.954491 71.954231"
   version="1.1"
   id="svg4874"
   inkscape:version="0.92.4 5da689c313, 2019-01-14"
   sodipodi:docname="autostop.svg">
  <defs
     id="defs4868" />
  <sodipodi:namedview
     id="base"
     pagecolor="#ffffff"
     bordercolor="#666666"
     borderopacity="1.0"
     inkscape:pageopacity="0.0"
     inkscape:pageshadow="2"
     inkscape:zoom="0.7"
     inkscape:cx="76.609209"
     inkscape:cy="163.60964"
     inkscape:document-units="mm"
     inkscape:current-layer="layer1"
     showgrid="false"
     fit-margin-top="0"
     fit-margin-left="0"
     fit-margin-right="0"
     fit-margin-bottom="0"
     inkscape:window-width="613"
     inkscape:window-height="462"
     inkscape:window-x="1766"
     inkscape:window-y="65"
     inkscape:window-maximized="0" />
  <metadata
     id="metadata4871">
    <rdf:RDF>
      <cc:Work
         rdf:about="">
        <dc:format>image/svg+xml</dc:format>
        <dc:type
           rdf:resource="http://purl.org/dc/dcmitype/StillImage" />
        <dc:title></dc:title>
      </cc:Work>
    </rdf:RDF>
  </metadata>
  <g
     inkscape:label="Ebene 1"
     inkscape:groupmode="layer"
     id="layer1"
     transform="translate(229.02314,3.282981)">
    <g
       id="g129"
       transform="translate(-979.76709,89.215891)">
      <path
         id="path120"
         d="m 786.72119,-20.544642 c -19.86941,0 -35.97724,-16.107569 -35.97724,-35.977247 0,-19.869679 16.10783,-35.976983 35.97724,-35.976983 19.86942,0 35.97725,16.107568 35.97725,35.977247 0,19.869679 -16.10757,35.976983 -35.97725,35.976983 z m 0,-66.197955 c -16.66319,0 -30.22071,13.557514 -30.22071,30.220708 0,16.663193 13.55752,30.220708 30.22071,30.220708 16.6632,0 30.22071,-13.557515 30.22071,-30.220708 0,-16.663194 -13.55593,-30.220708 -30.22071,-30.220708 z"
         style="fill:#010002;stroke-width:0.26458332"
         inkscape:connector-curvature="0" />
      <path
         id="path122"
         d="m 800.45326,-42.282708 c 1.67552,0 3.03339,-1.35764 3.03339,-3.0334 v -23.053109 c 0,-1.675525 -1.35764,-3.033389 -3.03339,-3.033389 -1.67552,0 -3.03339,1.357642 -3.03339,3.033389 v 23.053109 c 0,1.67576 1.35765,3.0334 3.03339,3.0334 z"
         style="fill:#010002;stroke-width:0.22307602"
         inkscape:connector-curvature="0" />
      <path
         sodipodi:nodetypes="ccscccccscccc"
         inkscape:connector-curvature="0"
         style="fill:#000008;fill-opacity:1;stroke-width:0.44480774"
         d="m 795.51711,-58.590139 -9.03513,-8.74691 c -1.72577,-0.93317 -4.20208,-0.0013 -4.12822,1.59828 v 5.72982 l -13.0032,1.7e-4 c -2.06704,-0.005 -2.87783,1.85093 -2.87866,3.01713 -0.007,1.22271 1.58488,3.03789 2.79916,3.03032 l 13.0827,0.005 v 5.71205 c 0,1.60137 2.40245,2.53145 4.12822,1.59828 l 9.03462,-8.7473 c 1.45171,-0.78446 1.45171,-2.41172 5.1e-4,-3.19657 z"
         id="path124" />
    </g>
  </g>
</svg>
