<?xml version="1.0" encoding="UTF-8" standalone="no"?>
<!-- Created with Inkscape (http://www.inkscape.org/) -->

<svg
   xmlns:dc="http://purl.org/dc/elements/1.1/"
   xmlns:cc="http://creativecommons.org/ns#"
   xmlns:rdf="http://www.w3.org/1999/02/22-rdf-syntax-ns#"
   xmlns:svg="http://www.w3.org/2000/svg"
   xmlns="http://www.w3.org/2000/svg"
   xmlns:sodipodi="http://sodipodi.sourceforge.net/DTD/sodipodi-0.dtd"
   xmlns:inkscape="http://www.inkscape.org/namespaces/inkscape"
   width="71.954491mm"
   height="71.954147mm"
   viewBox="0 0 71.954491 71.954147"
   version="1.1"
   id="svg4874"
   inkscape:version="0.92.4 5da689c313, 2019-01-14"
   sodipodi:docname="help.svg">
  <defs
     id="defs4868" />
  <sodipodi:namedview
     id="base"
     pagecolor="#ffffff"
     bordercolor="#666666"
     borderopacity="1.0"
     inkscape:pageopacity="0.0"
     inkscape:pageshadow="2"
     inkscape:zoom="0.7"
     inkscape:cx="192.58602"
     inkscape:cy="126.72884"
     inkscape:document-units="mm"
     inkscape:current-layer="layer1"
     showgrid="false"
     fit-margin-top="0"
     fit-margin-left="0"
     fit-margin-right="0"
     fit-margin-bottom="0"
     inkscape:window-width="613"
     inkscape:window-height="462"
     inkscape:window-x="2103"
     inkscape:window-y="60"
     inkscape:window-maximized="0" />
  <metadata
     id="metadata4871">
    <rdf:RDF>
      <cc:Work
         rdf:about="">
        <dc:format>image/svg+xml</dc:format>
        <dc:type
           rdf:resource="http://purl.org/dc/dcmitype/StillImage" />
        <dc:title></dc:title>
      </cc:Work>
    </rdf:RDF>
  </metadata>
  <g
     inkscape:label="Ebene 1"
     inkscape:groupmode="layer"
     id="layer1"
     transform="translate(259.70867,13.040944)">
    <g
       id="g188"
       transform="translate(-1124.9374,-41.024732)">
      <path
         inkscape:connector-curvature="0"
         style="fill:#010002;stroke-width:0.26458332"
         d="m 901.20598,99.937938 c 19.86941,0 35.97724,-16.10756 35.97724,-35.97721 0,-19.86966 -16.10783,-35.97694 -35.97724,-35.97694 -19.86942,0 -35.97725,16.10755 -35.97725,35.9772 0,19.86966 16.10757,35.97695 35.97725,35.97695 z m 0,-66.19788 c 16.66319,0 30.22071,13.55749 30.22071,30.22067 0,16.66318 -13.55752,30.22067 -30.22071,30.22067 -16.6632,0 -30.22071,-13.55749 -30.22071,-30.22067 0,-16.66318 13.55593,-30.22067 30.22071,-30.22067 z"
         id="path110" />
      <g
         id="text95"
         style="font-style:normal;font-variant:normal;font-weight:normal;font-stretch:normal;font-size:18.66666603px;line-height:125%;font-family:'Blue Highway';-inkscape-font-specification:'Blue Highway, Normal';font-variant-ligatures:normal;font-variant-caps:normal;font-variant-numeric:normal;font-feature-settings:normal;text-align:start;letter-spacing:0px;word-spacing:0px;writing-mode:lr-tb;text-anchor:start;fill:#000000;fill-opacity:1;stroke:none;stroke-width:1px;stroke-linecap:butt;stroke-linejoin:miter;stroke-opacity:1"
         aria-label="?"
         transform="matrix(4.2491268,0,0,4.2491268,1044.9299,74.91924)">
        <path
           style="stroke-width:0.95419556px"
           sodipodi:nodetypes="scscscscscscsccscccccccccccscsccc"
           inkscape:connector-curvature="0"
           id="path97"
           d="m -34.106909,2.1174945 c -0.236445,0 -0.441778,-0.090645 -0.616,-0.2719328 -0.174223,-0.192619 -0.261334,-0.4192297 -0.261334,-0.6798319 0,-0.26060219 0.08711,-0.48154755 0.261334,-0.66283606 0.174222,-0.19261904 0.379555,-0.28892856 0.616,-0.28892856 0.248889,0 0.448,0.0963095 0.597333,0.28892856 0.161778,0.18128851 0.242667,0.40223387 0.242667,0.66283606 0,0.2606022 -0.08089,0.4872129 -0.242667,0.6798319 -0.149333,0.1812885 -0.348444,0.2719328 -0.597333,0.2719328 z m -1.269334,-9.1381743 c 0.472889,-0.1586275 1.026667,-0.2379412 1.661334,-0.2379412 0.796444,0 1.437333,0.2096149 1.922666,0.6288445 0.497778,0.4078992 0.746667,1.0027521 0.746667,1.7845588 0,0.2945938 -0.04356,0.5608614 -0.130667,0.7988025 -0.08711,0.2266107 -0.205333,0.4418907 -0.354666,0.6458403 -0.136889,0.192619 -0.298667,0.3739075 -0.485334,0.5438655 -0.186667,0.169958 -0.379555,0.339916 -0.578666,0.509874 -0.186667,0.1586274 -0.329778,0.3059243 -0.429334,0.4418907 -0.08711,0.1359663 -0.155555,0.277598 -0.205333,0.4248949 -0.03733,0.1359663 -0.06222,0.2889285 -0.07467,0.4588865 -0.131949,0.64590052 -0.0083,0.59485298 -0.860258,0.59485298 -0.736169,0.0227732 -0.668624,-0.19985848 -0.67953,-0.40349844 0,-0.57785714 0.05268,-0.80886844 0.251791,-1.26208974 0.211556,-0.4645518 0.510223,-0.8554551 0.896,-1.17271 0.199111,-0.1699581 0.367111,-0.3172549 0.504,-0.4418908 0.136889,-0.1246358 0.242667,-0.2379411 0.317334,-0.3399159 0.07467,-0.1133054 0.124444,-0.2322759 0.149333,-0.3569118 0.03733,-0.1246358 0.056,-0.2719327 0.056,-0.4418907 0,-0.3172549 -0.09956,-0.5551961 -0.298667,-0.7138235 -0.186667,-0.169958 -0.448,-0.254937 -0.784,-0.254937 -0.410667,0 -0.784,0.056653 -1.12,0.169958 -0.825869,0.4458028 -0.785306,0.7138629 -1.330263,-0.091524 -0.50697,-0.7620554 0.169363,-0.9736484 0.826263,-1.2851356 z" />
      </g>
    </g>
  </g>
</svg>
