<?xml version="1.0" encoding="UTF-8" standalone="no"?>
<!-- Created with Inkscape (http://www.inkscape.org/) -->

<svg
   xmlns:dc="http://purl.org/dc/elements/1.1/"
   xmlns:cc="http://creativecommons.org/ns#"
   xmlns:rdf="http://www.w3.org/1999/02/22-rdf-syntax-ns#"
   xmlns:svg="http://www.w3.org/2000/svg"
   xmlns="http://www.w3.org/2000/svg"
   xmlns:sodipodi="http://sodipodi.sourceforge.net/DTD/sodipodi-0.dtd"
   xmlns:inkscape="http://www.inkscape.org/namespaces/inkscape"
   width="71.954498mm"
   height="71.95417mm"
   viewBox="0 0 71.954499 71.95417"
   version="1.1"
   id="svg4874"
   inkscape:version="0.92.4 5da689c313, 2019-01-14"
   sodipodi:docname="mute.svg">
  <defs
     id="defs4868" />
  <sodipodi:namedview
     id="base"
     pagecolor="#ffffff"
     bordercolor="#666666"
     borderopacity="1.0"
     inkscape:pageopacity="0.0"
     inkscape:pageshadow="2"
     inkscape:zoom="0.7"
     inkscape:cx="235.706"
     inkscape:cy="78.419513"
     inkscape:document-units="mm"
     inkscape:current-layer="layer1"
     showgrid="false"
     fit-margin-top="0"
     fit-margin-left="0"
     fit-margin-right="0"
     fit-margin-bottom="0"
     inkscape:window-width="613"
     inkscape:window-height="462"
     inkscape:window-x="2103"
     inkscape:window-y="60"
     inkscape:window-maximized="0" />
  <metadata
     id="metadata4871">
    <rdf:RDF>
      <cc:Work
         rdf:about="">
        <dc:format>image/svg+xml</dc:format>
        <dc:type
           rdf:resource="http://purl.org/dc/dcmitype/StillImage" />
        <dc:title></dc:title>
      </cc:Work>
    </rdf:RDF>
  </metadata>
  <g
     inkscape:label="Ebene 1"
     inkscape:groupmode="layer"
     id="layer1"
     transform="translate(271.1175,25.82281)">
    <g
       id="g264"
       transform="translate(-1295.7806,154.78679)">
      <path
         inkscape:connector-curvature="0"
         d="m 1062.0262,-161.36417 -12.0662,10.43641 h -11.4197 v 13.43009 h 11.2467 l 12.2392,10.58694 z"
         style="fill:#111111;stroke:#111111;stroke-width:3.51701999;stroke-linejoin:round"
         id="path225" />
      <path
         inkscape:connector-curvature="0"
         style="fill:#010002;stroke-width:0.26458332"
         d="m 1060.6404,-108.65543 c -19.8694,0 -35.9773,-16.10757 -35.9773,-35.97725 0,-19.86964 16.1079,-35.97692 35.9773,-35.97692 19.8694,0 35.9772,16.10755 35.9772,35.97718 0,19.86968 -16.1075,35.97699 -35.9772,35.97699 z m 0,-66.19791 c -16.6632,0 -30.2207,13.55751 -30.2207,30.22066 0,16.66319 13.5575,30.22071 30.2207,30.22071 16.6632,0 30.2207,-13.55752 30.2207,-30.22071 0,-16.66315 -13.5559,-30.22066 -30.2207,-30.22066 z"
         id="path231" />
      <g
         id="g243"
         transform="translate(316.47594,-268.51047)">
        <path
           inkscape:connector-curvature="0"
           style="fill:#010002;stroke-width:0.16748315"
           d="m 750.04814,133.1889 c 0.88952,0.88951 2.33115,0.88964 3.2208,-1e-5 l 12.23862,-12.23862 c 0.88952,-0.88951 0.88963,-2.33115 0,-3.22078 -0.88952,-0.88952 -2.33115,-0.88964 -3.22078,-1e-5 l -12.23863,12.23863 c -0.88965,0.88964 -0.88964,2.33116 -10e-6,3.22079 z"
           id="path239" />
        <path
           id="path241"
           d="m 750.04812,117.7295 c -0.88951,0.88952 -0.88964,2.33115 10e-6,3.2208 l 12.23862,12.23862 c 0.88951,0.88952 2.33115,0.88963 3.22078,0 0.88952,-0.88952 0.88964,-2.33115 10e-6,-3.22078 l -12.23863,-12.23863 c -0.88964,-0.88965 -2.33116,-0.88964 -3.22079,-1e-5 z"
           style="fill:#010002;stroke-width:0.16748315"
           inkscape:connector-curvature="0" />
      </g>
    </g>
  </g>
</svg>
