<?xml version="1.0" encoding="UTF-8" standalone="no"?>
<!-- Created with Inkscape (http://www.inkscape.org/) -->

<svg
   xmlns:dc="http://purl.org/dc/elements/1.1/"
   xmlns:cc="http://creativecommons.org/ns#"
   xmlns:rdf="http://www.w3.org/1999/02/22-rdf-syntax-ns#"
   xmlns:svg="http://www.w3.org/2000/svg"
   xmlns="http://www.w3.org/2000/svg"
   xmlns:sodipodi="http://sodipodi.sourceforge.net/DTD/sodipodi-0.dtd"
   xmlns:inkscape="http://www.inkscape.org/namespaces/inkscape"
   width="71.954491mm"
   height="71.954231mm"
   viewBox="0 0 71.954491 71.954231"
   version="1.1"
   id="svg4874"
   inkscape:version="0.92.4 5da689c313, 2019-01-14"
   sodipodi:docname="play.svg">
  <defs
     id="defs4868" />
  <sodipodi:namedview
     id="base"
     pagecolor="#ffffff"
     bordercolor="#666666"
     borderopacity="1.0"
     inkscape:pageopacity="0.0"
     inkscape:pageshadow="2"
     inkscape:zoom="0.35"
     inkscape:cx="-87.52058"
     inkscape:cy="398.19155"
     inkscape:document-units="mm"
     inkscape:current-layer="layer1"
     showgrid="false"
     fit-margin-top="0"
     fit-margin-left="0"
     fit-margin-right="0"
     fit-margin-bottom="0"
     inkscape:window-width="1920"
     inkscape:window-height="1062"
     inkscape:window-x="1600"
     inkscape:window-y="2"
     inkscape:window-maximized="1" />
  <metadata
     id="metadata4871">
    <rdf:RDF>
      <cc:Work
         rdf:about="">
        <dc:format>image/svg+xml</dc:format>
        <dc:type
           rdf:resource="http://purl.org/dc/dcmitype/StillImage" />
        <dc:title></dc:title>
      </cc:Work>
    </rdf:RDF>
  </metadata>
  <g
     inkscape:label="Ebene 1"
     inkscape:groupmode="layer"
     id="layer1"
     transform="translate(-128.98982,-182.23395)">
    <g
       id="g3926"
       transform="translate(-185.52778,174.66086)">
      <path
         id="path3920"
         d="M 362.04901,41.668059 345.87013,30.067661 c -1.72577,-1.237594 -4.12822,-0.0041 -4.12822,2.119688 v 23.201308 c 0,2.123786 2.40245,3.357282 4.12822,2.119688 l 16.17837,-11.60091 c 1.45171,-1.040379 1.45171,-3.198485 5.1e-4,-4.239376 z"
         style="fill:#1d1d1b;stroke-width:0.51224929"
         inkscape:connector-curvature="0" />
      <path
         id="path3922"
         d="m 350.49485,79.527321 c 19.86941,0 35.97724,-16.107569 35.97724,-35.977247 0,-19.869679 -16.10783,-35.9769833 -35.97724,-35.9769833 -19.86942,0 -35.97725,16.1075683 -35.97725,35.9772473 0,19.869679 16.10757,35.976983 35.97725,35.976983 z m 0,-66.197955 c 16.66319,0 30.22071,13.557514 30.22071,30.220708 0,16.663193 -13.55752,30.220708 -30.22071,30.220708 -16.6632,0 -30.22071,-13.557515 -30.22071,-30.220708 0,-16.663194 13.55593,-30.220708 30.22071,-30.220708 z"
         style="fill:#010002;stroke-width:0.26458332"
         inkscape:connector-curvature="0" />
    </g>
  </g>
</svg>
