<?xml version="1.0" encoding="UTF-8" standalone="no"?>
<!-- Created with Inkscape (http://www.inkscape.org/) -->

<svg
   xmlns:dc="http://purl.org/dc/elements/1.1/"
   xmlns:cc="http://creativecommons.org/ns#"
   xmlns:rdf="http://www.w3.org/1999/02/22-rdf-syntax-ns#"
   xmlns:svg="http://www.w3.org/2000/svg"
   xmlns="http://www.w3.org/2000/svg"
   xmlns:sodipodi="http://sodipodi.sourceforge.net/DTD/sodipodi-0.dtd"
   xmlns:inkscape="http://www.inkscape.org/namespaces/inkscape"
   width="71.954491mm"
   height="71.954231mm"
   viewBox="0 0 71.954491 71.954231"
   version="1.1"
   id="svg4874"
   inkscape:version="0.92.4 5da689c313, 2019-01-14"
   sodipodi:docname="repeat.svg">
  <defs
     id="defs4868" />
  <sodipodi:namedview
     id="base"
     pagecolor="#ffffff"
     bordercolor="#666666"
     borderopacity="1.0"
     inkscape:pageopacity="0.0"
     inkscape:pageshadow="2"
     inkscape:zoom="0.98994949"
     inkscape:cx="158.59963"
     inkscape:cy="108.82273"
     inkscape:document-units="mm"
     inkscape:current-layer="layer1"
     showgrid="false"
     fit-margin-top="0"
     fit-margin-left="0"
     fit-margin-right="0"
     fit-margin-bottom="0"
     inkscape:window-width="1920"
     inkscape:window-height="1062"
     inkscape:window-x="1600"
     inkscape:window-y="2"
     inkscape:window-maximized="1" />
  <metadata
     id="metadata4871">
    <rdf:RDF>
      <cc:Work
         rdf:about="">
        <dc:format>image/svg+xml</dc:format>
        <dc:type
           rdf:resource="http://purl.org/dc/dcmitype/StillImage" />
        <dc:title></dc:title>
      </cc:Work>
    </rdf:RDF>
  </metadata>
  <g
     inkscape:label="Ebene 1"
     inkscape:groupmode="layer"
     id="layer1"
     transform="translate(-46.00451,-117.80815)">
    <g
       transform="translate(-646.86678,110.23506)"
       id="g1157">
      <path
         sodipodi:nodetypes="cccccccccccccccccc"
         inkscape:connector-curvature="0"
         style="fill:#000000;fill-opacity:1;stroke:#000000;stroke-width:1.60948074;stroke-linecap:round;stroke-linejoin:round;stroke-miterlimit:4;stroke-dasharray:none;stroke-opacity:1;paint-order:stroke fill markers"
         d="m 727.08659,28.609019 -0.23702,-5.604531 -7.15728,7.789413 7.78944,7.157928 -0.23702,-5.604531 c 6.18327,-0.243494 11.40296,4.551989 11.68306,10.733718 0.17014,3.680292 -1.62806,5.085427 0.32251,6.581174 2.749,1.818004 3.42954,-5.464389 3.4132,-6.739168 -0.37117,-8.243691 -7.33126,-14.639572 -15.57689,-14.314003 z m 1.10612,26.153832 c -6.18328,0.243484 -11.40297,-4.551988 -11.68307,-10.733713 -0.15332,-3.828075 1.99737,-4.625194 -0.40557,-6.671054 -3.0889,-2.198095 -3.34537,5.640425 -3.33014,6.829044 0.37242,8.242995 7.33185,14.63826 15.57688,14.314011 l 0.23702,5.604528 7.15729,-7.789415 -7.78944,-7.157929 z"
         id="path604" />
      <path
         sodipodi:nodetypes="ssssssssss"
         id="path606-0"
         d="m 728.84854,79.527321 c 19.86941,0 35.97724,-16.107569 35.97724,-35.977247 0,-19.869679 -16.10783,-35.9769833 -35.97724,-35.9769833 -19.86942,0 -35.97725,16.1075683 -35.97725,35.9772473 0,19.869679 16.10757,35.976983 35.97725,35.976983 z m 0,-66.197955 c 16.66319,0 30.22071,13.557514 30.22071,30.220708 0,16.663193 -13.55752,30.220708 -30.22071,30.220708 -16.6632,0 -30.22071,-13.557515 -30.22071,-30.220708 0,-16.663194 13.55593,-30.220708 30.22071,-30.220708 z"
         style="fill:#010002;stroke-width:0.26458332"
         inkscape:connector-curvature="0" />
    </g>
  </g>
</svg>
