<?xml version="1.0" encoding="UTF-8" standalone="no"?>
<!-- Created with Inkscape (http://www.inkscape.org/) -->

<svg
   xmlns:dc="http://purl.org/dc/elements/1.1/"
   xmlns:cc="http://creativecommons.org/ns#"
   xmlns:rdf="http://www.w3.org/1999/02/22-rdf-syntax-ns#"
   xmlns:svg="http://www.w3.org/2000/svg"
   xmlns="http://www.w3.org/2000/svg"
   xmlns:sodipodi="http://sodipodi.sourceforge.net/DTD/sodipodi-0.dtd"
   xmlns:inkscape="http://www.inkscape.org/namespaces/inkscape"
   width="71.954498mm"
   height="71.954254mm"
   viewBox="0 0 71.954499 71.954254"
   version="1.1"
   id="svg4874"
   inkscape:version="0.92.4 5da689c313, 2019-01-14"
   sodipodi:docname="unmute.svg">
  <defs
     id="defs4868" />
  <sodipodi:namedview
     id="base"
     pagecolor="#ffffff"
     bordercolor="#666666"
     borderopacity="1.0"
     inkscape:pageopacity="0.0"
     inkscape:pageshadow="2"
     inkscape:zoom="0.7"
     inkscape:cx="310.25454"
     inkscape:cy="154.39605"
     inkscape:document-units="mm"
     inkscape:current-layer="layer1"
     showgrid="false"
     fit-margin-top="0"
     fit-margin-left="0"
     fit-margin-right="0"
     fit-margin-bottom="0"
     inkscape:window-width="613"
     inkscape:window-height="462"
     inkscape:window-x="2103"
     inkscape:window-y="60"
     inkscape:window-maximized="0" />
  <metadata
     id="metadata4871">
    <rdf:RDF>
      <cc:Work
         rdf:about="">
        <dc:format>image/svg+xml</dc:format>
        <dc:type
           rdf:resource="http://purl.org/dc/dcmitype/StillImage" />
        <dc:title></dc:title>
      </cc:Work>
    </rdf:RDF>
  </metadata>
  <g
     inkscape:label="Ebene 1"
     inkscape:groupmode="layer"
     id="layer1"
     transform="translate(290.8418,5.720767)">
    <g
       transform="translate(-1315.5049,69.055605)"
       id="g573">
      <g
         transform="translate(6.841369,-71.631072)"
         id="g223">
        <path
           inkscape:connector-curvature="0"
           d="m 1055.1848,16.100137 -12.0662,10.43641 h -11.4197 v 13.43009 h 11.2467 l 12.2392,10.58694 z"
           style="fill:#111111;stroke:#111111;stroke-width:3.51701999;stroke-linejoin:round"
           id="path160" />
        <path
           inkscape:connector-curvature="0"
           d="m 1061.2418,25.828917 a 13.716379,13.716379 0 0 1 0,15.05285 m 4.9942,-20.04702 a 21.102121,21.102121 0 0 1 0,25.04119 m 4.5721,-29.61331 a 27.292077,27.292077 0 0 1 0,34.18544"
           style="fill:none;stroke:#111111;stroke-width:3.51701999;stroke-linecap:round"
           id="path162" />
      </g>
      <path
         id="path219"
         d="m 1060.6404,-2.8221181 c -19.8694,0 -35.9773,-16.1075879 -35.9773,-35.9772889 0,-19.869663 16.1079,-35.976965 35.9773,-35.976965 19.8694,0 35.9772,16.107572 35.9772,35.977225 0,19.869701 -16.1075,35.9770289 -35.9772,35.9770289 z m 0,-66.1979829 c -16.6632,0 -30.2207,13.557521 -30.2207,30.220694 0,16.663208 13.5575,30.2207429 30.2207,30.2207429 16.6632,0 30.2207,-13.5575349 30.2207,-30.2207429 0,-16.663173 -13.5559,-30.220694 -30.2207,-30.220694 z"
         style="fill:#010002;stroke-width:0.26458332"
         inkscape:connector-curvature="0" />
    </g>
  </g>
</svg>
